<svg xmlns="http://www.w3.org/2000/svg" viewBox="0 0 196.78 150.87"><defs><style>.cls-1{fill:#fff;}.cls-2{fill:#4d4d4d;}</style></defs><title>Asset 2</title><g id="Layer_2" data-name="Layer 2"><g id="Layer_3" data-name="Layer 3"><path class="cls-1" d="M196.72,20.44c-.21-12.79-1.95-19-7.44-20.23-5.09-1.11-13.42,2.14-26.8,8.62-6.13,3-13.33,6.62-21.74,10.82-9.1-2.34-20.71-6.08-39.95-6.08l-2.4,0-2.4,0c-19.24,0-30.85,3.74-39.95,6.08C47.63,15.45,40.43,11.8,34.3,8.83,20.92,2.35,12.59-.9,7.49.21,2,1.41.26,7.65.06,20.44c-.14,6.84,0,13.07.27,18.75,1.28,25,5.82,39.2,5.82,46.46,0,23.88,16.81,44.75,43.69,56.12,13.66,5.77,29.91,9.1,47.89,9.1l.66,0,.66,0c18,0,34.23-3.33,47.89-9.1,26.88-11.37,43.69-32.24,43.69-56.12,0-7.26,4.54-21.46,5.82-46.46C196.74,33.51,196.86,27.28,196.72,20.44Z"/><ellipse class="cls-2" cx="51.62" cy="53.92" rx="10.79" ry="10.3"/><ellipse class="cls-2" cx="145.16" cy="53.92" rx="10.79" ry="10.3"/></g></g></svg>