<svg xmlns="http://www.w3.org/2000/svg" viewBox="0 0 311.94 92.9"><defs><style>.cls-1{fill:#fff;}.cls-2{fill:#4d4d4d;}</style></defs><title>Asset 1</title><g id="Layer_2" data-name="Layer 2"><g id="Layer_3" data-name="Layer 3"><path class="cls-1" d="M108.23,11.24c-.12-7-1.08-10.46-4.09-11.12-2.81-.61-7.39,1.17-14.75,4.74-3.37,1.63-7.33,3.64-12,6-5-1.29-11.39-3.34-22-3.34H52.81c-10.59,0-17,2.05-22,3.34-4.63-2.31-8.59-4.32-12-5.95C11.51,1.29,6.93-.49,4.12.12,1.1.78.15,4.21,0,11.24,0,15,0,18.43.18,21.56c.71,13.75,3.2,21.57,3.2,25.56,0,13.14,9.25,24.62,24,30.87a67.66,67.66,0,0,0,26.34,5h.74a67.7,67.7,0,0,0,26.34-5c14.79-6.25,24-17.73,24-30.87,0-4,2.49-11.81,3.2-25.56C108.24,18.43,108.3,15,108.23,11.24Z"/><ellipse class="cls-2" cx="28.4" cy="43.23" rx="5.94" ry="5.66"/><ellipse class="cls-2" cx="79.86" cy="43.23" rx="5.94" ry="5.66"/><path class="cls-1" d="M168.94,64.05c-6.47,12.39-20.6,16-29.38,15.06-14.28-1.5-20.46-8.59-18.63-25.95S134.59,3.88,159.86,6.53c9.07,1,15.74,5.26,14.76,14.62-.54,5.11-2.77,8.68-7.69,8.17a7,7,0,0,1-5.23-3.09c2.43-.91,5-4.74,5.36-8.41.33-3.08-.92-6-5.26-6.5-10.61-1.11-22.73,23.26-24.8,42.94-.93,8.88.74,15.29,10,16.27a23.53,23.53,0,0,0,19.82-7.67Z"/><path class="cls-1" d="M181.38,53.12c-2.34,0-4.2,3.66-4.56,5.28l-4.14,19.5H164l8.7-40.8,8.88-1.2L178.38,51a8.92,8.92,0,0,1,7-3.36c3.84,0,6.66,2,6.66,6.78s-2.88,12.12-2.88,15.48c0,1.5.6,2.52,2.4,2.52,2.64,0,3.72-2.16,5-5.28h2.52c-3.36,9.84-8,11.1-11.16,11.1-5.22,0-7.08-3.36-7.08-6.78,0-4.08,2.7-11.46,2.7-15.3C183.6,54.2,182.88,53.12,181.38,53.12Z"/><path class="cls-1" d="M225.42,47.9,221.1,68.3a8.33,8.33,0,0,0-.24,1.92c0,1.68.78,2.58,2.46,2.58,2.34,0,4-2.64,4.86-5.64h2.52c-3.42,9.78-8.82,11.1-12.06,11.1s-5.52-1.92-5.88-5.52c-1.86,2.76-4.68,5.52-8.94,5.52-4.08,0-8-2.52-8-9.66,0-8.1,5-21,15.42-21,3.42,0,4.86,1.32,4.86,3.06v.42l.66-3.18Zm-20.7,19.86c0,4.62,1.92,4.68,3,4.68,1.74,0,4.26-1.8,5-5.28l2.88-13.56a2.33,2.33,0,0,0-2.46-2.28C208,51.32,204.72,62.12,204.72,67.76Z"/><path class="cls-1" d="M241.38,45.68l-1,4.5a10.42,10.42,0,0,1,7-2.58c4.08,0,7.32,2.34,7.32,9.48,0,8.1-3.12,21.18-14.76,21.18-3,0-4.44-1-5.1-2.16l-3.12,14.64-9.06,2.16,10-47.22Zm5.16,11.22c0-4.62-1.92-5-3-5a5.37,5.37,0,0,0-4.14,2.94l-3.54,16.8A2.21,2.21,0,0,0,238.14,73C244.44,73,246.54,62.54,246.54,56.9Z"/><path class="cls-1" d="M269.46,45.68l-1,4.5a10.42,10.42,0,0,1,7-2.58c4.08,0,7.32,2.34,7.32,9.48,0,8.1-3.12,21.18-14.76,21.18-3,0-4.44-1-5.1-2.16l-3.12,14.64L250.8,92.9l10-47.22Zm5.16,11.22c0-4.62-1.92-5-3-5a5.37,5.37,0,0,0-4.14,2.94l-3.54,16.8A2.21,2.21,0,0,0,266.22,73C272.52,73,274.62,62.54,274.62,56.9Z"/><path class="cls-1" d="M297.06,47.9l-4.32,20.4a6.41,6.41,0,0,0-.18,1.5c0,1.38.42,2.64,1.8,2.64,2.34,0,3.9-2.28,4.8-5.28l4.08-19.26h8.7l-7.32,34.8c-1.8,8.58-7,10.2-10.92,10.2-3.66,0-7.08-2.58-7.08-6.48,0-5.58,4.68-7.32,10.38-9l.6-2.64a9.28,9.28,0,0,1-7.32,3.48c-3.6,0-6.42-2.16-6.42-7.2a19.68,19.68,0,0,1,.48-3.9l4.08-19.26Zm-4.74,39.66c1.2,0,2.76-1.14,3.54-4.68l.72-3.54c-3.78,1.26-6.66,3-6.66,6.24A2.42,2.42,0,0,0,292.32,87.56Z"/><path class="cls-2" d="M72.19,59.82a3.58,3.58,0,0,0-.55-2.46,3.63,3.63,0,0,1-1.72,1.76,4.62,4.62,0,0,1-1.93.52,7.39,7.39,0,0,1-3.36-.88,15.21,15.21,0,0,1-3.11-1.93c-.35-.26-.68-.56-1-.86l-.1-.09c0-.65-.12-1.31-.19-2,0-.35-.05-.69-.09-1l-5.2.51-5.19-.51c0,.34-.06.68-.1,1-.06.65-.13,1.31-.19,2l-.1.09c-.33.3-.67.6-1,.86a14.87,14.87,0,0,1-3.1,1.93,7.39,7.39,0,0,1-3.36.88,4.7,4.7,0,0,1-1.94-.52,3.72,3.72,0,0,1-1.72-1.76,3.63,3.63,0,0,0-.55,2.46,3.64,3.64,0,0,0,0,1.09,5.5,5.5,0,0,0,.56,1.51,8.17,8.17,0,0,0,2.13,2.49,8.49,8.49,0,0,0,3.21,1.54,6.07,6.07,0,0,0,1,.17l.52,0,.39,0a11.91,11.91,0,0,0,1.58,0,18.25,18.25,0,0,0,6.16-1.31,14.8,14.8,0,0,0,1.71-.8,16.54,16.54,0,0,0,1.71.8,18.36,18.36,0,0,0,6.17,1.31,11.91,11.91,0,0,0,1.58,0l.39,0,.52,0a6.27,6.27,0,0,0,1-.17,8.44,8.44,0,0,0,3.2-1.54,8.2,8.2,0,0,0,2.14-2.49,5.17,5.17,0,0,0,.55-1.51A3.64,3.64,0,0,0,72.19,59.82Z"/></g></g></svg>