<?xml version="1.0" encoding="utf-8"?>
<!-- Generator: Adobe Illustrator 19.0.0, SVG Export Plug-In . SVG Version: 6.00 Build 0)  -->
<svg version="1.1" id="Layer_1" xmlns="http://www.w3.org/2000/svg" xmlns:xlink="http://www.w3.org/1999/xlink" x="0px" y="0px"
	 viewBox="0 0 96 96" style="enable-background:new 0 0 96 96;" xml:space="preserve">
<style type="text/css">
	.st0{fill:#333333;}
</style>
<g id="XMLID_2_">
	<path id="XMLID_6_" class="st0" d="M64,50.3v-4.6c0-0.6-0.2-1.2-0.7-1.6s-1-0.7-1.6-0.7h-9.2v-9.2c0-0.6-0.2-1.2-0.7-1.6
		c-0.5-0.5-1-0.7-1.6-0.7h-4.6c-0.6,0-1.2,0.2-1.6,0.7s-0.7,1-0.7,1.6v9.2h-9.2c-0.6,0-1.2,0.2-1.6,0.7s-0.7,1-0.7,1.6v4.6
		c0,0.6,0.2,1.2,0.7,1.6c0.5,0.5,1,0.7,1.6,0.7h9.2v9.2c0,0.6,0.2,1.2,0.7,1.6s1,0.7,1.6,0.7h4.6c0.6,0,1.2-0.2,1.6-0.7
		c0.5-0.5,0.7-1,0.7-1.6v-9.2h9.2c0.6,0,1.2-0.2,1.6-0.7C63.8,51.4,64,50.9,64,50.3z M75.5,48c0,5-1.2,9.6-3.7,13.8
		c-2.5,4.2-5.8,7.5-10,10c-4.2,2.5-8.8,3.7-13.8,3.7s-9.6-1.2-13.8-3.7c-4.2-2.5-7.5-5.8-10-10S20.5,53,20.5,48s1.2-9.6,3.7-13.8
		s5.8-7.5,10-10S43,20.5,48,20.5s9.6,1.2,13.8,3.7s7.5,5.8,10,10C74.3,38.4,75.5,43,75.5,48z"/>
</g>
</svg>
